<svg width="19" height="13" viewBox="0 0 19 13" fill="none" xmlns="http://www.w3.org/2000/svg">
<path d="M-3.93402e-07 6.49414C-3.9881e-07 6.37044 0.0260413 6.25326 0.0781246 6.14258C0.123698 6.0319 0.195312 5.92773 0.292968 5.83008L5.64453 0.253906C5.71615 0.175781 5.80404 0.113932 5.9082 0.068359C6.01237 0.0227861 6.13607 -3.79458e-07 6.2793 -3.85719e-07C6.44857 -3.93118e-07 6.60156 0.0390621 6.73828 0.117187C6.875 0.195312 6.98242 0.302734 7.06055 0.439453C7.13867 0.569661 7.17773 0.719401 7.17773 0.888671C7.17773 0.992838 7.1582 1.10352 7.11914 1.2207C7.08008 1.33138 7.01172 1.4388 6.91406 1.54297L2.06055 6.49414L6.91406 11.4551C7.01823 11.5592 7.08984 11.6667 7.12891 11.7773C7.16146 11.888 7.17773 11.9987 7.17773 12.1094C7.17773 12.2786 7.13867 12.4316 7.06055 12.5684C6.98242 12.6986 6.875 12.8027 6.73828 12.8809C6.60156 12.959 6.44857 12.998 6.2793 12.998C6.13607 12.998 6.01237 12.9753 5.9082 12.9297C5.80404 12.8841 5.71615 12.8223 5.64453 12.7441L0.292968 7.16797C0.195312 7.07031 0.123698 6.96615 0.0781246 6.85547C0.0260413 6.73828 -3.87995e-07 6.61784 -3.93402e-07 6.49414ZM18.8086 6.49414C18.8086 6.61784 18.7826 6.73828 18.7305 6.85547C18.6849 6.96614 18.6133 7.07031 18.5156 7.16797L13.1641 12.7441C13.0859 12.8223 12.9948 12.8841 12.8906 12.9297C12.7865 12.9753 12.6628 12.998 12.5195 12.998C12.3503 12.998 12.2005 12.959 12.0703 12.8809C11.9336 12.8027 11.8262 12.6986 11.748 12.5684C11.6699 12.4316 11.6309 12.2786 11.6309 12.1094C11.6309 11.9987 11.6504 11.888 11.6895 11.7773C11.722 11.6667 11.7904 11.5592 11.8945 11.4551L16.748 6.49414L11.8945 1.54297C11.7969 1.4388 11.7285 1.33138 11.6895 1.2207C11.6504 1.10352 11.6309 0.992838 11.6309 0.888671C11.6309 0.7194 11.6699 0.569661 11.748 0.439453C11.8262 0.302734 11.9336 0.195312 12.0703 0.117187C12.2005 0.0390619 12.3503 -6.51089e-07 12.5195 -6.58488e-07C12.6628 -6.64749e-07 12.7865 0.0227858 12.8906 0.0683587C12.9948 0.113932 13.0859 0.175781 13.1641 0.253906L18.5156 5.83008C18.6133 5.92773 18.6849 6.0319 18.7305 6.14258C18.7826 6.25325 18.8086 6.37044 18.8086 6.49414Z" fill="black"/>
</svg>
