<svg width="24" height="24" viewBox="0 0 24 24" fill="none" xmlns="http://www.w3.org/2000/svg">
<path d="M11.957 23C10.44 23 9.01651 22.7124 7.68644 22.1373C6.35638 21.5693 5.18808 20.782 4.18154 19.7755C3.17501 18.7618 2.38416 17.5935 1.80899 16.2706C1.24102 14.9405 0.957031 13.517 0.957031 12C0.957031 10.483 1.24102 9.05948 1.80899 7.72941C2.38416 6.39935 3.17501 5.23105 4.18154 4.22451C5.18808 3.21797 6.35638 2.43072 7.68644 1.86275C9.01651 1.28758 10.44 1 11.957 1C13.474 1 14.8976 1.28758 16.2276 1.86275C17.5577 2.43072 18.726 3.21797 19.7325 4.22451C20.7391 5.23105 21.5263 6.39935 22.0943 7.72941C22.6695 9.05948 22.957 10.483 22.957 12C22.957 13.517 22.6695 14.9405 22.0943 16.2706C21.5263 17.5935 20.7391 18.7618 19.7325 19.7755C18.726 20.782 17.5577 21.5693 16.2276 22.1373C14.8976 22.7124 13.474 23 11.957 23ZM7.30899 17.6186L13.6933 14.4912C14.0312 14.333 14.2864 14.0778 14.459 13.7255L17.5649 7.35196C17.6871 7.10033 17.7159 6.88105 17.6511 6.69412C17.5936 6.5 17.4678 6.37059 17.2737 6.30588C17.0868 6.24118 16.8603 6.26994 16.5943 6.39216L10.2423 9.49804C10.0698 9.57712 9.9188 9.68137 9.78938 9.81079C9.66716 9.93301 9.55932 10.0876 9.46586 10.2745L6.34919 16.6588C6.23416 16.9033 6.20899 17.119 6.2737 17.3059C6.3384 17.4928 6.46422 17.6222 6.65115 17.6941C6.84527 17.7588 7.06455 17.7337 7.30899 17.6186ZM11.9678 13.3804C11.594 13.3804 11.2704 13.2474 10.9972 12.9814C10.7312 12.7082 10.5982 12.3846 10.5982 12.0108C10.5982 11.6369 10.7312 11.317 10.9972 11.051C11.2704 10.785 11.594 10.652 11.9678 10.652C12.3417 10.652 12.6616 10.785 12.9276 11.051C13.1936 11.317 13.3266 11.6369 13.3266 12.0108C13.3266 12.3846 13.1936 12.7082 12.9276 12.9814C12.6616 13.2474 12.3417 13.3804 11.9678 13.3804Z" fill="#ADACB1"/>
</svg>
