<svg width="13" height="18" viewBox="0 0 13 18" fill="none" xmlns="http://www.w3.org/2000/svg">
<path d="M3.875 5.75H2.625C2.12772 5.75 1.65081 5.94754 1.29917 6.29917C0.947544 6.65081 0.75 7.12772 0.75 7.625V15.125C0.75 15.6223 0.947544 16.0992 1.29917 16.4508C1.65081 16.8025 2.12772 17 2.625 17H10.125C10.6223 17 11.0992 16.8025 11.4508 16.4508C11.8025 16.0992 12 15.6223 12 15.125V7.625C12 7.12772 11.8025 6.65081 11.4508 6.29917C11.0992 5.94754 10.6223 5.75 10.125 5.75H8.875M8.875 8.875L6.375 11.375L3.875 8.875M6.375 11.375V0.75" stroke="black" stroke-width="1.5" stroke-linecap="round" stroke-linejoin="round"/>
</svg>
