<svg width="19" height="23" viewBox="0 0 19 23" fill="none" xmlns="http://www.w3.org/2000/svg">
<path d="M8.7288 4.89174C8.85934 4.89174 8.92971 4.81138 8.94977 4.69085C9.25114 3.06362 9.22097 2.98326 10.9688 2.67188C11.0893 2.64174 11.1696 2.57143 11.1696 2.44085C11.1696 2.32031 11.0893 2.23995 10.9688 2.21986C9.22097 1.90848 9.25114 1.82812 8.94977 0.200893C8.92971 0.0803571 8.85934 0 8.7288 0C8.59817 0 8.5279 0.0803571 8.50781 0.200893C8.20647 1.82812 8.23661 1.90848 6.48884 2.21986C6.35826 2.23995 6.28795 2.32031 6.28795 2.44085C6.28795 2.57143 6.35826 2.64174 6.48884 2.67188C8.23661 2.98326 8.20647 3.06362 8.50781 4.69085C8.5279 4.81138 8.59817 4.89174 8.7288 4.89174Z" fill="black"/>
<path d="M3.86719 11.8024C4.05804 11.8024 4.18862 11.6719 4.20871 11.491C4.57031 8.80911 4.66071 8.80911 7.43304 8.27679C7.60379 8.24665 7.73438 8.12612 7.73438 7.93527C7.73438 7.75447 7.60379 7.62388 7.43304 7.60379C4.66071 7.21205 4.56027 7.12165 4.20871 4.39955C4.18862 4.20871 4.05804 4.07812 3.86719 4.07812C3.68638 4.07812 3.55581 4.20871 3.52567 4.4096C3.20424 7.09152 3.05357 7.08147 0.301339 7.60379C0.130581 7.63393 0 7.75447 0 7.93527C0 8.13616 0.130581 8.24665 0.341518 8.27679C3.07366 8.71877 3.20424 8.78906 3.52567 11.471C3.55581 11.6719 3.68638 11.8024 3.86719 11.8024Z" fill="black"/>
<path d="M10.6774 22.9119C10.9386 22.9119 11.1295 22.721 11.1797 22.4498C11.8929 16.9553 12.6663 16.1116 18.1105 15.509C18.3917 15.4788 18.5826 15.2779 18.5826 15.0067C18.5826 14.7455 18.3917 14.5447 18.1105 14.5145C12.6663 13.9119 11.8929 13.0681 11.1797 7.56362C11.1295 7.29241 10.9386 7.11161 10.6774 7.11161C10.4163 7.11161 10.2255 7.29241 10.1853 7.56362C9.47211 13.0681 8.6886 13.9119 3.25447 14.5145C2.96317 14.5447 2.77233 14.7455 2.77233 15.0067C2.77233 15.2779 2.96317 15.4788 3.25447 15.509C8.67857 16.2221 9.43192 16.9553 10.1853 22.4498C10.2255 22.721 10.4163 22.9119 10.6774 22.9119Z" fill="black"/>
</svg>
