<svg width="19" height="15" viewBox="0 0 19 15" fill="none" xmlns="http://www.w3.org/2000/svg">
<path d="M0 10.215C0 10.3739 0.0772981 10.5618 0.196759 10.6846L3.29572 13.9499C3.42923 14.0944 3.59086 14.1667 3.76653 14.1667C3.93519 14.1667 4.09681 14.0944 4.23033 13.9499L7.33632 10.6846C7.45577 10.5618 7.52605 10.3739 7.52605 10.215C7.52605 9.83212 7.27306 9.57931 6.90764 9.57931C6.72492 9.57931 6.58443 9.63707 6.47901 9.75266L5.46007 10.858L4.32168 12.2017L4.39195 10.5329V3.63377L4.32168 1.96498L5.46007 3.30868L6.47901 4.41399C6.58443 4.52957 6.72492 4.58737 6.90764 4.58737C7.27306 4.58737 7.52605 4.33452 7.52605 3.95164C7.52605 3.7927 7.45577 3.60488 7.33632 3.48206L4.23033 0.216726C4.09681 0.0722423 3.93519 0 3.76653 0C3.59086 0 3.42923 0.0722423 3.29572 0.216726L0.196759 3.48206C0.0772981 3.60488 0 3.7927 0 3.95164C0 4.33452 0.252976 4.58737 0.618386 4.58737C0.801093 4.58737 0.94866 4.52235 1.04704 4.41399L2.073 3.30868L3.20437 1.96498L3.13409 3.63377V10.5329L3.20437 12.2017L2.073 10.858L1.04704 9.75266C0.94866 9.64428 0.801093 9.57931 0.618386 9.57931C0.252976 9.57931 0 9.83212 0 10.215ZM8.89631 5.17252C8.89631 5.38203 9.05096 5.54818 9.26875 5.57708C12.5786 5.95996 13.0634 6.43675 13.5061 9.94771C13.5412 10.1645 13.7029 10.309 13.8926 10.309C14.0894 10.309 14.251 10.1645 14.2861 9.94771C14.7288 6.43675 15.2067 5.95996 18.5164 5.57708C18.7413 5.54818 18.8889 5.38203 18.8889 5.17252C18.8889 4.96302 18.7413 4.79687 18.5164 4.76797C15.2137 4.38509 14.7288 3.90106 14.2861 0.397331C14.251 0.187829 14.0964 0.0433452 13.8926 0.0433452C13.6958 0.0433452 13.5412 0.187829 13.5061 0.397331C13.0353 3.87939 12.5856 4.31284 9.26875 4.76797C9.05096 4.79687 8.89631 4.96302 8.89631 5.17252ZM8.22878 11.4648C8.22878 11.6093 8.32712 11.7321 8.48171 11.7682C10.2736 12.1149 10.3088 12.0933 10.5125 13.8271C10.5407 13.9933 10.6531 14.1161 10.8077 14.1161C10.9693 14.1161 11.0818 14.0005 11.1098 13.8343C11.3347 12.0211 11.412 12.0211 13.1266 11.7682C13.2883 11.7393 13.3937 11.6165 13.3937 11.4648C13.3937 11.3203 13.2953 11.1903 13.1337 11.1614C11.391 10.8146 11.3418 10.858 11.1098 9.08805C11.0818 8.92912 10.9623 8.81353 10.8077 8.81353C10.6531 8.81353 10.5407 8.93633 10.5125 9.10247C10.3088 10.8363 10.2666 10.8652 8.50983 11.1614C8.33414 11.1903 8.22878 11.3058 8.22878 11.4648Z" fill="black"/>
</svg>
