<svg width="13" height="11" viewBox="0 0 13 11" fill="none" xmlns="http://www.w3.org/2000/svg">
<path d="M7.49902 10.3633C7.3304 10.3633 7.18913 10.3063 7.0752 10.1924C6.96126 10.083 6.9043 9.94401 6.9043 9.77539C6.9043 9.69336 6.91797 9.61589 6.94531 9.54297C6.97266 9.46549 7.01367 9.39941 7.06836 9.34473L8.59961 7.78613L11.4502 5.18164L8.59961 2.57715L7.06836 1.01855C7.01367 0.963867 6.97266 0.900065 6.94531 0.827148C6.91797 0.749674 6.9043 0.669922 6.9043 0.587891C6.9043 0.419271 6.96126 0.280273 7.0752 0.170898C7.18913 0.0569661 7.3304 0 7.49902 0C7.58105 0 7.65853 0.0159505 7.73145 0.0478516C7.80892 0.0797526 7.88411 0.132161 7.95703 0.205078L12.4893 4.72363C12.626 4.85579 12.6943 5.00846 12.6943 5.18164C12.6943 5.35482 12.626 5.50749 12.4893 5.63965L7.94336 10.1719C7.8112 10.2995 7.66309 10.3633 7.49902 10.3633ZM0.601562 5.79004C0.423828 5.79004 0.277995 5.73307 0.164062 5.61914C0.0546875 5.50521 0 5.35938 0 5.18164C0 5.00391 0.0546875 4.85807 0.164062 4.74414C0.277995 4.63021 0.423828 4.57324 0.601562 4.57324H9.24902L11.4502 4.70996C11.5915 4.71908 11.7054 4.76465 11.792 4.84668C11.8786 4.92871 11.9219 5.04036 11.9219 5.18164C11.9219 5.31836 11.8786 5.42773 11.792 5.50977C11.7054 5.5918 11.5915 5.63965 11.4502 5.65332L9.24902 5.79004H0.601562Z" fill="white"/>
</svg>
